<svg width="390" height="844" viewBox="0 0 390 844" fill="none" xmlns="http://www.w3.org/2000/svg">
  <rect width="390" height="844" rx="32" fill="#FAF7F2"/>
  <rect x="18" y="18" width="354" height="808" rx="28" fill="#FFFDFC" stroke="#E8D8CD"/>
  <text x="36" y="58" font-family="Arial, sans-serif" font-size="14" fill="#9A4D3B">斗南場</text>
  <text x="36" y="88" font-family="Arial, sans-serif" font-size="26" font-weight="700" fill="#C93620">節目表</text>
  <text x="36" y="113" font-family="Arial, sans-serif" font-size="13" fill="#6F625C">搜尋後以老師分組，只顯示符合項目的節目。</text>

  <rect x="30" y="136" width="330" height="44" rx="14" fill="#FFF8F4" stroke="#C93620" stroke-width="1.5"/>
  <text x="52" y="164" font-family="Arial, sans-serif" font-size="15" font-weight="700" fill="#2E2825">王錦聰</text>
  <circle cx="332" cy="158" r="11" stroke="#C93620" stroke-width="2"/>
  <line x1="340" y1="166" x2="348" y2="174" stroke="#C93620" stroke-width="2" stroke-linecap="round"/>
  <text x="300" y="164" font-family="Arial, sans-serif" font-size="13" fill="#9A4D3B" text-anchor="end">清除</text>

  <text x="30" y="218" font-family="Arial, sans-serif" font-size="19" font-weight="700" fill="#2E2825">符合搜尋項目的節目</text>
  <text x="30" y="244" font-family="Arial, sans-serif" font-size="13" fill="#6F625C">找到 2 筆結果</text>

  <rect x="30" y="270" width="330" height="72" rx="16" fill="#FFFDFC" stroke="#E7C4B9"/>
  <text x="52" y="299" font-family="Arial, sans-serif" font-size="17" font-weight="700" fill="#2E2825">Miss. Lucy 張老師</text>
  <text x="52" y="325" font-family="Arial, sans-serif" font-size="14" fill="#8B5A4D">11:30 - 12:25</text>

  <rect x="42" y="358" width="306" height="76" rx="14" fill="#FFF8F4" stroke="#E7C4B9"/>
  <text x="62" y="387" font-family="Arial, sans-serif" font-size="22" font-weight="700" fill="#C93620">03</text>
  <text x="106" y="386" font-family="Arial, sans-serif" font-size="15" fill="#695D58">王錦聰</text>
  <text x="106" y="412" font-family="Arial, sans-serif" font-size="18" font-weight="700" fill="#2E2825">My heart will go on.</text>

  <rect x="42" y="450" width="306" height="76" rx="14" fill="#FFFFFF" stroke="#E7C4B9"/>
  <text x="62" y="479" font-family="Arial, sans-serif" font-size="22" font-weight="700" fill="#C93620">06</text>
  <text x="106" y="478" font-family="Arial, sans-serif" font-size="15" fill="#695D58">王錦聰</text>
  <text x="106" y="504" font-family="Arial, sans-serif" font-size="18" font-weight="700" fill="#2E2825">卡農</text>

  <rect x="30" y="560" width="330" height="124" rx="18" fill="#F7ECE5" stroke="#E7C4B9"/>
  <text x="52" y="592" font-family="Arial, sans-serif" font-size="15" font-weight="700" fill="#9A4D3B">互動規則</text>
  <text x="52" y="622" font-family="Arial, sans-serif" font-size="13" fill="#6F625C">搜尋欄失焦後才檢查輸入值。</text>
  <text x="52" y="646" font-family="Arial, sans-serif" font-size="13" fill="#6F625C">清除搜尋後恢復上午 / 下午 accordion 全資料。</text>
  <text x="52" y="670" font-family="Arial, sans-serif" font-size="13" fill="#6F625C">查無結果時顯示空狀態：「查無結果」。</text>
</svg>
